<?xml version="1.0" encoding="UTF-8"?>
<svg id="_1080_x_1080_px_Logo_2" data-name="1080 x 1080 px Logo 2" xmlns="http://www.w3.org/2000/svg" viewBox="0 0 1079.26 514.93">
  <defs>
    <style>
      .cls-1 {
        fill: #161616;
        font-family: Inter-Medium, Inter;
        font-size: 84.78px;
        font-variation-settings: 'wght' 500, 'slnt' 0;
        font-weight: 500;
        letter-spacing: .23em;
      }

      .cls-2 {
        fill: #fff;
      }

      .cls-3 {
        fill: #bc002d;
      }

      .cls-4 {
        fill: #353535;
      }
    </style>
  </defs>
  <rect class="cls-2" width="1079.26" height="514.93"/>
  <g>
    <path class="cls-4" d="M156.99,338.32v-3.51c5.3-.25,9.79-1.63,13.49-4.16,3.7-2.53,6.47-6.74,8.32-12.66,1.85-5.91,2.77-13.98,2.77-24.21,0-33.81,0-67.63,0-101.44,0-4.56-.34-7.91-1.02-10.07-.68-2.15-2.06-3.63-4.16-4.44-2.1-.8-5.24-1.26-9.42-1.39,0-1.23,0-2.46,0-3.7,2.83.12,6.47.25,10.9.37,4.43.12,9.11.19,14.04.19,4.8,0,9.52-.06,14.14-.19,4.62-.12,8.41-.25,11.36-.37,0,1.23,0,2.46,0,3.7-4.07.12-7.15.59-9.24,1.39-2.1.8-3.51,2.28-4.25,4.44-.74,2.16-1.11,5.51-1.11,10.07v67.63c0,5.05-.03,10.53-.09,16.45-.06,5.91-.31,11.64-.74,17.18-.43,5.54-1.2,10.41-2.31,14.6-2.22,8.62-6.93,15.8-14.14,21.53-7.21,5.73-16.72,8.59-28.55,8.59Z"/>
    <path class="cls-4" d="M246.98,304.87c-5.17,0-9.61-.99-13.3-2.96-3.7-1.97-6.47-4.68-8.32-8.13-1.85-3.45-2.77-7.39-2.77-11.83,0-5.42,1.23-9.82,3.7-13.21,2.46-3.39,5.64-6.13,9.52-8.22,3.88-2.09,8.01-3.85,12.38-5.27,4.37-1.41,8.5-2.77,12.38-4.07,3.88-1.29,7.08-2.8,9.61-4.53,2.52-1.72,3.79-4,3.79-6.84,0-4.19,0-8.38,0-12.56,0-4.43-.71-7.97-2.12-10.62-1.42-2.65-3.33-4.53-5.73-5.64-2.4-1.11-5.27-1.66-8.59-1.66-2.84,0-5.85.4-9.05,1.2-3.21.8-5.73,2.37-7.58,4.71,2.71.74,4.96,2.19,6.74,4.34,1.78,2.16,2.68,4.84,2.68,8.04,0,3.45-1.14,6.16-3.42,8.13-2.28,1.97-5.14,2.96-8.59,2.96-3.82,0-6.65-1.2-8.5-3.6-1.85-2.4-2.77-5.2-2.77-8.41,0-3.33.83-6.03,2.49-8.13,1.66-2.09,3.85-4.07,6.56-5.91,2.96-1.97,6.75-3.63,11.36-4.99,4.62-1.35,9.76-2.03,15.43-2.03,5.3,0,9.89.59,13.77,1.76,3.88,1.17,7.11,3.05,9.7,5.64,3.08,2.83,5.11,6.37,6.1,10.62.98,4.25,1.48,9.39,1.48,15.43v51c0,3.08.4,5.27,1.2,6.56.8,1.29,2.13,1.94,3.97,1.94,1.23,0,2.43-.31,3.6-.92,1.17-.61,2.56-1.54,4.16-2.77.62,1.05,1.23,2.09,1.85,3.14-2.59,2.1-5.21,3.76-7.85,4.99-2.65,1.23-6,1.85-10.07,1.85-3.94,0-7.14-.62-9.61-1.85-2.47-1.23-4.28-3.02-5.45-5.36-1.17-2.34-1.76-5.23-1.76-8.68-3.2,5.17-7.02,9.12-11.46,11.83-4.43,2.71-9.61,4.06-15.52,4.06ZM255.85,296c3.45,0,6.68-.98,9.7-2.96,3.02-1.97,5.82-4.93,8.41-8.87,0-12.26,0-24.51,0-36.77-1.36,1.97-3.33,3.67-5.91,5.08-2.59,1.42-5.36,2.86-8.31,4.34-2.96,1.48-5.76,3.17-8.41,5.08-2.65,1.91-4.84,4.34-6.56,7.3-1.73,2.96-2.59,6.72-2.59,11.27,0,4.8,1.23,8.59,3.7,11.36,2.46,2.77,5.79,4.16,9.98,4.16Z"/>
    <path class="cls-4" d="M342.69,206.2v113.27c0,5.42,1.54,9.05,4.62,10.9,3.08,1.85,7.33,2.77,12.75,2.77v3.88c-2.83-.12-6.78-.28-11.83-.46-5.05-.19-10.47-.28-16.26-.28-4.07,0-8.07.09-12.01.28-3.94.18-6.96.34-9.05.46,0-1.29,0-2.59,0-3.88,4.31,0,7.36-.83,9.15-2.49,1.78-1.66,2.68-4.78,2.68-9.33,0-30.98,0-61.96,0-92.94,0-5.54-.92-9.64-2.77-12.29-1.85-2.65-5.36-3.97-10.53-3.97,0-1.29,0-2.59,0-3.88,3.94.37,7.76.55,11.46.55,4.07,0,7.94-.21,11.64-.65,3.7-.43,7.08-1.08,10.16-1.94ZM372.07,205.64c6.4,0,12.16,1.76,17.28,5.27,5.11,3.51,9.15,8.66,12.1,15.43,2.96,6.78,4.43,15.22,4.43,25.31,0,7.39-.86,14.38-2.59,20.97-1.73,6.59-4.34,12.38-7.85,17.37-3.51,4.99-7.92,8.93-13.21,11.83-5.3,2.89-11.58,4.34-18.85,4.34-5.42,0-10.19-1.17-14.32-3.51-4.13-2.34-7.05-5.29-8.78-8.87.62-.86,1.23-1.72,1.85-2.59,1.6,3.08,3.85,5.61,6.75,7.58,2.89,1.97,6.5,2.96,10.81,2.96,6.4,0,11.42-2.06,15.06-6.19,3.63-4.13,6.19-9.73,7.67-16.81,1.48-7.08,2.22-15.12,2.22-24.11,0-10.1-.74-18.26-2.22-24.48-1.48-6.22-3.7-10.78-6.65-13.67-2.96-2.89-6.53-4.34-10.72-4.34-5.54,0-10.57,2.22-15.06,6.65-4.5,4.44-7.24,11.09-8.22,19.96-.62-1.29-1.23-2.59-1.85-3.88,1.6-9.24,5.33-16.41,11.18-21.53,5.85-5.11,12.84-7.67,20.97-7.67Z"/>
    <path class="cls-4" d="M441.36,304.87c-5.17,0-9.61-.99-13.3-2.96-3.7-1.97-6.47-4.68-8.32-8.13-1.85-3.45-2.77-7.39-2.77-11.83,0-5.42,1.23-9.82,3.7-13.21,2.46-3.39,5.64-6.13,9.52-8.22,3.88-2.09,8.01-3.85,12.38-5.27,4.37-1.41,8.5-2.77,12.38-4.07,3.88-1.29,7.08-2.8,9.61-4.53,2.52-1.72,3.79-4,3.79-6.84,0-4.19,0-8.38,0-12.56,0-4.43-.71-7.97-2.12-10.62-1.42-2.65-3.33-4.53-5.73-5.64-2.4-1.11-5.27-1.66-8.59-1.66-2.83,0-5.85.4-9.05,1.2-3.2.8-5.73,2.37-7.58,4.71,2.71.74,4.96,2.19,6.74,4.34,1.78,2.16,2.68,4.84,2.68,8.04,0,3.45-1.14,6.16-3.42,8.13-2.28,1.97-5.15,2.96-8.59,2.96-3.82,0-6.65-1.2-8.5-3.6-1.85-2.4-2.77-5.2-2.77-8.41,0-3.33.83-6.03,2.49-8.13,1.66-2.09,3.85-4.07,6.56-5.91,2.96-1.97,6.75-3.63,11.36-4.99,4.62-1.35,9.76-2.03,15.43-2.03,5.3,0,9.89.59,13.77,1.76,3.88,1.17,7.12,3.05,9.7,5.64,3.08,2.83,5.11,6.37,6.1,10.62.98,4.25,1.48,9.39,1.48,15.43v51c0,3.08.4,5.27,1.2,6.56.8,1.29,2.12,1.94,3.97,1.94,1.23,0,2.43-.31,3.6-.92,1.17-.61,2.56-1.54,4.16-2.77.62,1.05,1.23,2.09,1.85,3.14-2.59,2.1-5.21,3.76-7.85,4.99-2.65,1.23-6,1.85-10.07,1.85-3.95,0-7.14-.62-9.61-1.85-2.47-1.23-4.28-3.02-5.45-5.36-1.17-2.34-1.76-5.23-1.76-8.68-3.2,5.17-7.02,9.12-11.46,11.83-4.43,2.71-9.61,4.06-15.52,4.06ZM450.23,296c3.45,0,6.68-.98,9.7-2.96,3.02-1.97,5.82-4.93,8.41-8.87,0-12.26,0-24.51,0-36.77-1.36,1.97-3.33,3.67-5.91,5.08-2.59,1.42-5.36,2.86-8.31,4.34-2.96,1.48-5.76,3.17-8.41,5.08-2.65,1.91-4.84,4.34-6.56,7.3-1.73,2.96-2.59,6.72-2.59,11.27,0,4.8,1.23,8.59,3.7,11.36,2.46,2.77,5.79,4.16,9.98,4.16Z"/>
    <path class="cls-4" d="M569.23,205.64c4.93,0,8.96.65,12.1,1.94,3.14,1.29,5.76,3.05,7.85,5.27,2.22,2.34,3.79,5.36,4.71,9.05.93,3.7,1.39,8.68,1.39,14.97v49.52c0,5.17,1.02,8.68,3.05,10.53,2.03,1.85,5.45,2.77,10.25,2.77v3.88c-2.1-.12-5.36-.28-9.79-.46-4.43-.19-8.81-.28-13.12-.28-4.19,0-8.35.09-12.47.28-4.13.18-7.24.34-9.33.46v-3.88c4.19,0,7.14-.92,8.87-2.77,1.72-1.85,2.59-5.36,2.59-10.53v-54.69c0-3.57-.31-6.81-.92-9.7-.62-2.89-1.91-5.23-3.88-7.02-1.97-1.78-4.93-2.68-8.87-2.68-4.56,0-8.59,1.29-12.1,3.88-3.51,2.59-6.28,6.13-8.32,10.62-2.03,4.5-3.05,9.52-3.05,15.06,0,14.84,0,29.69,0,44.53,0,5.17.89,8.68,2.68,10.53,1.79,1.85,4.71,2.77,8.78,2.77v3.88c-1.97-.12-4.96-.28-8.96-.46-4.01-.19-8.16-.28-12.47-.28-4.19,0-8.56.09-13.12.28-4.56.18-7.95.34-10.16.46v-3.88c4.8,0,8.22-.92,10.25-2.77,2.03-1.85,3.05-5.36,3.05-10.53v-58.02c0-5.54-.92-9.64-2.77-12.29-1.85-2.65-5.36-3.97-10.53-3.97v-3.88c3.94.37,7.76.55,11.46.55,4.19,0,8.1-.21,11.73-.65,3.63-.43,6.99-1.08,10.07-1.94,0,6.71,0,13.43,0,20.14,3.2-7.64,7.61-13,13.21-16.08,5.6-3.08,11.55-4.62,17.83-4.62Z"/>
    <path class="cls-4" d="M658.48,205.64c10.84,0,19.34,3.27,25.5,9.79,6.16,6.53,9.24,16.88,9.24,31.04h-63.75c-.12-1.17-.25-2.34-.37-3.51h44.53c.12-6.03-.37-11.61-1.48-16.72-1.11-5.11-2.83-9.21-5.17-12.29-2.34-3.08-5.42-4.62-9.24-4.62-5.3,0-9.89,2.8-13.77,8.41-3.88,5.61-6.25,14.57-7.11,26.89.18.31.37.62.55.92-.13,1.73-.25,3.6-.37,5.64-.12,2.03-.18,4.04-.18,6.01,0,8.5,1.29,15.65,3.88,21.43,2.59,5.79,5.97,10.13,10.16,13.03,4.19,2.9,8.44,4.34,12.75,4.34,3.33,0,6.56-.52,9.7-1.57,3.14-1.05,6.13-2.83,8.96-5.36,2.83-2.52,5.36-6.01,7.58-10.44,1.23.49,2.46.99,3.7,1.48-1.48,4.19-3.76,8.31-6.84,12.38-3.08,4.07-7.02,7.36-11.83,9.89-4.8,2.52-10.41,3.79-16.81,3.79-8.63,0-16.14-1.94-22.54-5.82-6.41-3.88-11.34-9.45-14.78-16.72-3.45-7.27-5.17-15.89-5.17-25.87,0-10.96,1.78-20.33,5.36-28.09,3.57-7.76,8.59-13.7,15.06-17.83,6.47-4.13,13.95-6.19,22.45-6.19Z"/>
    <path class="cls-4" d="M736.64,205.64c4.92,0,9.21.77,12.84,2.31,3.63,1.54,6.25,2.93,7.85,4.16,4.06,3.2,6.59,1.11,7.58-6.28h4.07c-.25,3.45-.43,7.61-.55,12.47-.13,4.87-.19,11.3-.19,19.31h-4.06c-.74-4.56-2-8.99-3.79-13.3-1.79-4.31-4.37-7.88-7.76-10.72-3.39-2.83-7.79-4.25-13.21-4.25-4.07,0-7.46,1.14-10.16,3.42-2.71,2.28-4.07,5.64-4.07,10.07,0,3.7,1.11,6.9,3.33,9.61,2.22,2.71,5.08,5.24,8.59,7.58,3.51,2.34,7.3,4.87,11.36,7.58,4.55,3.08,8.65,6.13,12.29,9.15,3.63,3.02,6.53,6.38,8.68,10.07,2.16,3.7,3.23,8.01,3.23,12.93,0,5.67-1.51,10.47-4.53,14.41-3.02,3.94-6.99,6.93-11.92,8.96-4.93,2.03-10.35,3.05-16.26,3.05-2.96,0-5.73-.28-8.32-.83-2.59-.55-4.99-1.26-7.21-2.12-1.36-.74-2.68-1.51-3.97-2.31-1.29-.8-2.56-1.57-3.79-2.31-1.23-.86-2.34-.74-3.33.37-.99,1.11-1.73,3.08-2.22,5.91h-4.07c.25-3.94.43-8.75.55-14.41.12-5.67.18-13.18.18-22.54h4.07c.86,6.78,2.15,12.75,3.88,17.92,1.72,5.17,4.28,9.21,7.67,12.1,3.39,2.9,8.04,4.34,13.95,4.34,2.34,0,4.68-.52,7.02-1.57,2.34-1.04,4.28-2.74,5.82-5.08,1.54-2.34,2.31-5.48,2.31-9.42,0-5.42-1.88-9.89-5.64-13.4-3.76-3.51-8.59-7.24-14.5-11.18-4.19-2.96-8.16-5.88-11.92-8.78-3.76-2.89-6.81-6.16-9.15-9.79-2.34-3.63-3.51-7.97-3.51-13.03,0-5.54,1.32-10.1,3.97-13.67,2.65-3.57,6.19-6.25,10.62-8.04,4.43-1.78,9.17-2.68,14.23-2.68Z"/>
    <path class="cls-4" d="M827.91,205.64c10.84,0,19.34,3.27,25.5,9.79,6.16,6.53,9.24,16.88,9.24,31.04h-63.75l-.37-3.51h44.53c.12-6.03-.37-11.61-1.48-16.72-1.11-5.11-2.84-9.21-5.17-12.29-2.34-3.08-5.42-4.62-9.24-4.62-5.3,0-9.89,2.8-13.77,8.41-3.88,5.61-6.25,14.57-7.11,26.89.18.31.37.62.55.92-.13,1.73-.25,3.6-.37,5.64-.12,2.03-.18,4.04-.18,6.01,0,8.5,1.29,15.65,3.88,21.43,2.59,5.79,5.97,10.13,10.16,13.03,4.19,2.9,8.44,4.34,12.75,4.34,3.33,0,6.56-.52,9.7-1.57,3.14-1.05,6.13-2.83,8.96-5.36,2.83-2.52,5.36-6.01,7.58-10.44,1.23.49,2.46.99,3.7,1.48-1.48,4.19-3.76,8.31-6.84,12.38-3.08,4.07-7.02,7.36-11.83,9.89-4.8,2.52-10.41,3.79-16.81,3.79-8.62,0-16.14-1.94-22.54-5.82-6.41-3.88-11.34-9.45-14.78-16.72-3.45-7.27-5.17-15.89-5.17-25.87,0-10.96,1.78-20.33,5.36-28.09,3.57-7.76,8.59-13.7,15.06-17.83,6.47-4.13,13.95-6.19,22.45-6.19Z"/>
  </g>
  <text class="cls-1" transform="translate(45.25 440.84) scale(1.03 1)"><tspan x="0" y="0">KITCHEN KNIVES</tspan></text>
  <ellipse class="cls-3" cx="916.2" cy="225.09" rx="22.34" ry="21.62"/>
  <path class="cls-3" d="M693.72,75.28c12.83,4.2,64.51,45.06,64.51,45.06-9.55,3.83-52.34,11.5-131.57,15.39-13.39.66-102.83,3.06-103.2,2.83-.24-.14-6-42.69-6-42.69-.3-2.65-1.36-5.16-3.1-7.18-1.58-1.83-3.59-3.55-5.3-3.08-1.84.51-4.31,2.49-6.2,4.21-1.91,1.73-4.37,2.73-6.94,2.77,0,0-112.14,2.57-115.92,1.3-3.06-1.02-9.47-6.46-9.9-14.44-.4-7.39.41-14.56,2-19.28.85-2.52,4.86-5.64,6.83-5.56l116.42,5.41"/>
</svg>