<?xml version="1.0" encoding="UTF-8"?>
<svg id="_10801080_px_Logo_2" data-name=" 10801080 px Logo 2" xmlns="http://www.w3.org/2000/svg" viewBox="0 0 1079.3 514.9">
  <defs>
    <style>
      .cls-1, .cls-2 {
        isolation: isolate;
      }

      .cls-3 {
        fill: #fff;
      }

      .cls-4 {
        fill: #bc002d;
      }

      .cls-5 {
        fill: #353535;
      }

      .cls-2 {
        fill: #161616;
        font-family: Inter-Regular, Inter;
        font-size: 84.8px;
        font-variation-settings: 'wght' 400, 'slnt' 0;
        letter-spacing: .2em;
      }
    </style>
  </defs>
  <rect class="cls-3" width="1079.3" height="514.9"/>
  <g>
    <g>
      <path class="cls-5" d="M191.5,352v-3.5c5.3-.2,9.8-1.6,13.5-4.2,3.7-2.5,6.5-6.7,8.3-12.7,1.8-5.9,2.8-14,2.8-24.2v-101.4c0-4.6-.3-7.9-1-10.1-.7-2.2-2.1-3.6-4.2-4.4-2.1-.8-5.2-1.3-9.4-1.4v-3.7c2.8.1,6.5.2,10.9.4,4.4.1,9.1.2,14,.2s9.5,0,14.1-.2c4.6-.1,8.4-.2,11.4-.4v3.7c-4.1.1-7.1.6-9.2,1.4-2.1.8-3.5,2.3-4.3,4.4-.7,2.2-1.1,5.5-1.1,10.1v84c0,5.9-.3,11.6-.7,17.2-.4,5.5-1.2,10.4-2.3,14.6-2.2,8.6-6.9,15.8-14.1,21.5-7.2,5.7-16.7,8.6-28.5,8.6h-.2Z"/>
      <path class="cls-5" d="M281.5,318.6c-5.2,0-9.6-1-13.3-3s-6.5-4.7-8.3-8.1-2.8-7.4-2.8-11.8,1.2-9.8,3.7-13.2c2.5-3.4,5.6-6.1,9.5-8.2s8-3.8,12.4-5.3c4.4-1.4,8.5-2.8,12.4-4.1,3.9-1.3,7.1-2.8,9.6-4.5s3.8-4,3.8-6.8v-12.6c0-4.4-.7-8-2.1-10.6s-3.3-4.5-5.7-5.6c-2.4-1.1-5.3-1.7-8.6-1.7s-5.9.4-9.1,1.2c-3.2.8-5.7,2.4-7.6,4.7,2.7.7,5,2.2,6.7,4.3,1.8,2.2,2.7,4.8,2.7,8s-1.1,6.2-3.4,8.1c-2.3,2-5.1,3-8.6,3s-6.7-1.2-8.5-3.6c-1.8-2.4-2.8-5.2-2.8-8.4s.8-6,2.5-8.1,3.8-4.1,6.6-5.9c3-2,6.7-3.6,11.4-5,4.6-1.4,9.8-2,15.4-2s9.9.6,13.8,1.8,7.1,3,9.7,5.6c3.1,2.8,5.1,6.4,6.1,10.6,1,4.2,1.5,9.4,1.5,15.4v51c0,3.1.4,5.3,1.2,6.6.8,1.3,2.1,1.9,4,1.9s2.4-.3,3.6-.9,2.6-1.5,4.2-2.8c.6,1,1.2,2.1,1.8,3.1-2.6,2.1-5.2,3.8-7.9,5-2.7,1.2-6,1.8-10.1,1.8s-7.1-.6-9.6-1.8c-2.5-1.2-4.3-3-5.5-5.4-1.2-2.3-1.8-5.2-1.8-8.7-3.2,5.2-7,9.1-11.5,11.8-4.4,2.7-9.6,4.1-15.5,4.1h.1ZM290.3,309.7c3.4,0,6.7-1,9.7-3s5.8-4.9,8.4-8.9v-36.8c-1.4,2-3.3,3.7-5.9,5.1s-5.4,2.9-8.3,4.3c-3,1.5-5.8,3.2-8.4,5.1-2.7,1.9-4.8,4.3-6.6,7.3-1.7,3-2.6,6.7-2.6,11.3s1.2,8.6,3.7,11.4,5.8,4.2,10,4.2Z"/>
      <path class="cls-5" d="M377.2,219.9v113.3c0,5.4,1.5,9.1,4.6,10.9s7.3,2.8,12.8,2.8v3.9c-2.8-.1-6.8-.3-11.8-.5-5.1-.2-10.5-.3-16.3-.3s-8.1,0-12,.3c-3.9.2-7,.3-9.1.5v-3.9c4.3,0,7.4-.8,9.1-2.5,1.8-1.7,2.7-4.8,2.7-9.3v-92.9c0-30.9-.9-9.6-2.8-12.3-1.8-2.6-5.4-4-10.5-4v-3.9c3.9.4,7.8.6,11.5.6s7.9-.2,11.6-.6c3.7-.4,7.1-1.1,10.2-1.9v-.2ZM406.6,219.3c6.4,0,12.2,1.8,17.3,5.3,5.1,3.5,9.1,8.7,12.1,15.4,3,6.8,4.4,15.2,4.4,25.3s-.9,14.4-2.6,21-4.3,12.4-7.9,17.4c-3.5,5-7.9,8.9-13.2,11.8-5.3,2.9-11.6,4.3-18.8,4.3s-10.2-1.2-14.3-3.5c-4.1-2.3-7.1-5.3-8.8-8.9.6-.9,1.2-1.7,1.8-2.6,1.6,3.1,3.8,5.6,6.7,7.6,2.9,2,6.5,3,10.8,3,6.4,0,11.4-2.1,15.1-6.2,3.6-4.1,6.2-9.7,7.7-16.8,1.5-7.1,2.2-15.1,2.2-24.1s-.7-18.3-2.2-24.5-3.7-10.8-6.7-13.7-6.5-4.3-10.7-4.3-10.6,2.2-15.1,6.7c-4.5,4.4-7.2,11.1-8.2,20-.6-1.3-1.2-2.6-1.8-3.9,1.6-9.2,5.3-16.4,11.2-21.5,5.8-5.1,12.8-7.7,21-7.7h0Z"/>
      <path class="cls-5" d="M475.9,318.6c-5.2,0-9.6-1-13.3-3-3.7-2-6.5-4.7-8.3-8.1s-2.8-7.4-2.8-11.8,1.2-9.8,3.7-13.2c2.5-3.4,5.6-6.1,9.5-8.2s8-3.8,12.4-5.3c4.4-1.4,8.5-2.8,12.4-4.1,3.9-1.3,7.1-2.8,9.6-4.5s3.8-4,3.8-6.8v-12.6c0-4.4-.7-8-2.1-10.6s-3.3-4.5-5.7-5.6c-2.4-1.1-5.3-1.7-8.6-1.7s-5.9.4-9.1,1.2-5.7,2.4-7.6,4.7c2.7.7,5,2.2,6.7,4.3,1.8,2.2,2.7,4.8,2.7,8s-1.1,6.2-3.4,8.1c-2.3,2-5.1,3-8.6,3s-6.7-1.2-8.5-3.6c-1.8-2.4-2.8-5.2-2.8-8.4s.8-6,2.5-8.1,3.8-4.1,6.6-5.9c3-2,6.7-3.6,11.4-5,4.6-1.4,9.8-2,15.4-2s9.9.6,13.8,1.8,7.1,3,9.7,5.6c3.1,2.8,5.1,6.4,6.1,10.6,1,4.2,1.5,9.4,1.5,15.4v51c0,3.1.4,5.3,1.2,6.6.8,1.3,2.1,1.9,4,1.9s2.4-.3,3.6-.9,2.6-1.5,4.2-2.8c.6,1,1.2,2.1,1.8,3.1-2.6,2.1-5.2,3.8-7.9,5-2.7,1.2-6,1.8-10.1,1.8s-7.1-.6-9.6-1.8c-2.5-1.2-4.3-3-5.5-5.4-1.2-2.3-1.8-5.2-1.8-8.7-3.2,5.2-7,9.1-11.5,11.8-4.4,2.7-9.6,4.1-15.5,4.1h0ZM484.7,309.7c3.4,0,6.7-1,9.7-3s5.8-4.9,8.4-8.9v-36.8c-1.4,2-3.3,3.7-5.9,5.1s-5.4,2.9-8.3,4.3c-3,1.5-5.8,3.2-8.4,5.1-2.7,1.9-4.8,4.3-6.6,7.3-1.7,3-2.6,6.7-2.6,11.3s1.2,8.6,3.7,11.4,5.8,4.2,10,4.2h0Z"/>
      <path class="cls-5" d="M603.7,219.3c4.9,0,9,.6,12.1,1.9,3.1,1.3,5.8,3,7.9,5.3,2.2,2.3,3.8,5.4,4.7,9.1.9,3.7,1.4,8.7,1.4,15v49.5c0,5.2,1,8.7,3,10.5s5.5,2.8,10.3,2.8v3.9c-2.1-.1-5.4-.3-9.8-.5-4.4-.2-8.8-.3-13.1-.3s-8.3,0-12.5.3c-4.1.2-7.2.3-9.3.5v-3.9c4.2,0,7.1-.9,8.9-2.8,1.7-1.8,2.6-5.4,2.6-10.5v-54.7c0-3.6-.3-6.8-.9-9.7-.6-2.9-1.9-5.2-3.9-7s-4.9-2.7-8.9-2.7-8.6,1.3-12.1,3.9c-3.5,2.6-6.3,6.1-8.3,10.6s-3,9.5-3,15.1v44.5c0,5.2.9,8.7,2.7,10.5s4.7,2.8,8.8,2.8v3.9c-2-.1-5-.3-9-.5s-8.2-.3-12.5-.3-8.6,0-13.1.3c-4.6.2-7.9.3-10.2.5v-3.9c4.8,0,8.2-.9,10.3-2.8,2-1.8,3-5.4,3-10.5v-58c0-5.5-.9-9.6-2.8-12.3-1.8-2.6-5.4-4-10.5-4v-3.9c3.9.4,7.8.6,11.5.6s8.1-.2,11.7-.6c3.6-.4,7-1.1,10.1-1.9v20.1c3.2-7.6,7.6-13,13.2-16.1,5.6-3.1,11.5-4.6,17.8-4.6h-.1Z"/>
      <path class="cls-5" d="M693,219.3c10.8,0,19.3,3.3,25.5,9.8s9.2,16.9,9.2,31h-63.7c0-1.2-.2-2.3-.4-3.5h44.5c0-6-.4-11.6-1.5-16.7-1.1-5.1-2.8-9.2-5.2-12.3-2.3-3.1-5.4-4.6-9.2-4.6s-9.9,2.8-13.8,8.4c-3.9,5.6-6.3,14.6-7.1,26.9.2.3.4.6.6.9,0,1.7-.2,3.6-.4,5.6,0,2-.2,4-.2,6,0,8.5,1.3,15.6,3.9,21.4,2.6,5.8,6,10.1,10.2,13s8.4,4.3,12.8,4.3,6.6-.5,9.7-1.6c3.1-1,6.1-2.8,9-5.4,2.8-2.5,5.4-6,7.6-10.4,1.2.5,2.5,1,3.7,1.5-1.5,4.2-3.8,8.3-6.8,12.4-3.1,4.1-7,7.4-11.8,9.9s-10.4,3.8-16.8,3.8-16.1-1.9-22.5-5.8-11.3-9.5-14.8-16.7c-3.4-7.3-5.2-15.9-5.2-25.9s1.8-20.3,5.4-28.1c3.6-7.8,8.6-13.7,15.1-17.8s14-6.2,22.5-6.2h-.3Z"/>
      <path class="cls-5" d="M771.1,219.3c4.9,0,9.2.8,12.8,2.3s6.3,2.9,7.9,4.2c4.1,3.2,6.6,1.1,7.6-6.3h4.1c-.2,3.5-.4,7.6-.6,12.5,0,4.9-.2,11.3-.2,19.3h-4.1c-.7-4.6-2-9-3.8-13.3s-4.4-7.9-7.8-10.7c-3.4-2.8-7.8-4.2-13.2-4.2s-7.5,1.1-10.2,3.4c-2.7,2.3-4.1,5.6-4.1,10.1s1.1,6.9,3.3,9.6c2.2,2.7,5.1,5.2,8.6,7.6,3.5,2.3,7.3,4.9,11.4,7.6,4.6,3.1,8.7,6.1,12.3,9.1s6.5,6.4,8.7,10.1,3.2,8,3.2,12.9-1.5,10.5-4.5,14.4-7,6.9-11.9,9c-4.9,2-10.3,3-16.3,3s-5.7-.3-8.3-.8c-2.6-.6-5-1.3-7.2-2.1-1.4-.7-2.7-1.5-4-2.3s-2.6-1.6-3.8-2.3c-1.2-.9-2.3-.7-3.3.4s-1.7,3.1-2.2,5.9h-4.1c.2-3.9.4-8.7.6-14.4,0-5.7.2-13.2.2-22.5h4.1c.9,6.8,2.2,12.7,3.9,17.9,1.7,5.2,4.3,9.2,7.7,12.1s8,4.3,14,4.3,4.7-.5,7-1.6c2.3-1,4.3-2.7,5.8-5.1,1.5-2.3,2.3-5.5,2.3-9.4s-1.9-9.9-5.6-13.4c-3.8-3.5-8.6-7.2-14.5-11.2-4.2-3-8.2-5.9-11.9-8.8-3.8-2.9-6.8-6.2-9.1-9.8-2.3-3.6-3.5-8-3.5-13s1.3-10.1,4-13.7c2.6-3.6,6.2-6.3,10.6-8,4.4-1.8,9.2-2.7,14.2-2.7h-.1Z"/>
      <path class="cls-5" d="M862.4,219.3c10.8,0,19.3,3.3,25.5,9.8s9.2,16.9,9.2,31h-63.7l-.4-3.5h44.5c0-6-.4-11.6-1.5-16.7-1.1-5.1-2.8-9.2-5.2-12.3-2.3-3.1-5.4-4.6-9.2-4.6s-9.9,2.8-13.8,8.4c-3.9,5.6-6.3,14.6-7.1,26.9.2.3.4.6.6.9,0,1.7-.2,3.6-.4,5.6,0,2-.2,4-.2,6,0,8.5,1.3,15.6,3.9,21.4,2.6,5.8,6,10.1,10.2,13s8.4,4.3,12.8,4.3,6.6-.5,9.7-1.6c3.1-1,6.1-2.8,9-5.4,2.8-2.5,5.4-6,7.6-10.4,1.2.5,2.5,1,3.7,1.5-1.5,4.2-3.8,8.3-6.8,12.4-3.1,4.1-7,7.4-11.8,9.9s-10.4,3.8-16.8,3.8-16.1-1.9-22.5-5.8-11.3-9.5-14.8-16.7c-3.5-7.3-5.2-15.9-5.2-25.9s1.8-20.3,5.4-28.1c3.6-7.8,8.6-13.7,15.1-17.8s14-6.2,22.5-6.2h-.3Z"/>
    </g>
    <g class="cls-1">
      <text class="cls-2" transform="translate(80.1 454.5)"><tspan x="0" y="0">KITCHEN KNIVES</tspan></text>
    </g>
    <ellipse class="cls-4" cx="950.7" cy="238.8" rx="22.3" ry="21.6"/>
    <path class="cls-4" d="M728.2,80c12.8,4.2,64.5,45.1,64.5,45.1-9.6,3.8-52.3,11.5-131.6,15.4s-102.8,3.1-103.2,2.8-6-42.7-6-42.7c-.3-2.6-1.4-5.2-3.1-7.2-1.6-1.8-3.6-3.6-5.3-3.1s-4.3,2.5-6.2,4.2c-1.9,1.7-4.4,2.7-6.9,2.8,0,0-112.1,2.6-115.9,1.3-3.1-1-9.5-6.5-9.9-14.4-.4-7.4.4-14.6,2-19.3.8-2.5,4.9-5.6,6.8-5.6l116.4,5.4"/>
  </g>
</svg>