<?xml version="1.0" encoding="UTF-8"?>
<svg xmlns="http://www.w3.org/2000/svg" viewBox="0 0 95.9 95.9">
  <defs>
    <style>
      .cls-1 {
        fill: #bc1730;
      }

      .cls-2 {
        fill: #fff;
      }
    </style>
  </defs>
  <g id="_Шар_2" data-name="Шар 2">
    <rect x="0" y="0" width="95.9" height="95.9" rx="47.9" ry="47.9"/>
  </g>
  <g id="_Шар_1" data-name="Шар 1">
    <path class="cls-2" d="M81.2,38.1c2.5,1.6,11.5,13,11.5,13-2.2.3-11.8-.3-29-3.5-2.9-.6-22.2-4.7-22.2-4.7s.9-9.5.9-9.5c0-.6,0-1.2-.3-1.7s-.6-.9-1-.9-1.1.3-1.5.6-1.1.4-1.6.2c0,0-24.1-5.3-24.9-5.7s-1.7-1.9-1.4-3.6c.3-1.6.8-3.1,1.4-4s1.3-1,1.8-.8l24.6,7.2"/>
    <path class="cls-1" d="M71.4,66.1c2.2,2.1,9,15.2,9,15.2-2.3-.1-11.8-2.5-28.4-9.1-2.8-1.1-21.3-9-21.4-9.1s2.8-9.3,2.8-9.3c.2-.6.2-1.2,0-1.8s-.4-1.1-.8-1.1-1.1.1-1.7.3-1.1.2-1.7,0c0,0-23.2-10-23.9-10.6s-1.3-2.2-.7-3.9,1.4-2.9,2.2-3.8,1.5-.7,1.9-.5l23.3,12"/>
  </g>
</svg>